<?xml version="1.0" standalone="no"?>
<!DOCTYPE svg PUBLIC "-//W3C//DTD SVG 20010904//EN"
 "http://www.w3.org/TR/2001/REC-SVG-20010904/DTD/svg10.dtd">
<svg version="1.0" xmlns="http://www.w3.org/2000/svg"
 width="114.000000pt" height="114.000000pt" viewBox="0 0 114.000000 114.000000"
 preserveAspectRatio="xMidYMid meet">
<metadata>
Created by potrace 1.11, written by Peter Selinger 2001-2013
</metadata>
<g transform="translate(0.000000,114.000000) scale(0.100000,-0.100000)"
fill="#000000" stroke="none">
<path d="M480 875 c0 -42 2 -46 23 -43 19 3 22 9 22 43 0 34 -3 40 -22 43 -21
3 -23 -1 -23 -43z"/>
<path d="M667 830 c-47 -37 -30 -87 17 -53 33 23 40 43 23 60 -11 12 -18 10
-40 -7z"/>
<path d="M290 821 c0 -29 43 -76 63 -68 24 9 21 40 -6 65 -29 28 -57 29 -57 3z"/>
<path d="M419 758 c-61 -35 -96 -118 -69 -168 8 -15 5 -19 -23 -24 -38 -7 -93
-54 -107 -91 -16 -41 -12 -107 9 -145 28 -54 74 -80 140 -80 37 0 71 -7 96
-20 54 -27 156 -27 210 0 25 13 59 20 95 20 104 0 166 66 158 169 -6 85 -54
139 -131 148 -23 3 -50 13 -61 22 -17 15 -16 16 20 21 31 4 39 9 39 25 0 16
-8 21 -43 23 -37 3 -44 0 -49 -17 -4 -17 -9 -19 -24 -10 -10 5 -19 17 -19 27
0 28 -38 81 -72 102 -45 27 -121 26 -169 -2z m136 -42 c18 -8 38 -24 45 -35
10 -20 8 -21 -35 -21 -51 0 -109 -21 -141 -51 l-22 -20 -6 26 c-9 37 13 77 54
97 42 22 60 22 105 4z m80 -125 c23 -10 53 -33 68 -50 20 -24 32 -31 47 -26
30 9 87 -13 110 -42 26 -34 26 -92 0 -126 -28 -35 -82 -52 -121 -38 -26 9 -36
7 -71 -17 -58 -38 -138 -38 -196 0 -35 24 -45 26 -71 17 -39 -14 -93 3 -121
38 -24 31 -26 90 -4 122 21 30 77 53 108 45 20 -5 32 2 61 35 55 61 119 75
190 42z"/>
<path d="M210 635 c0 -23 4 -25 45 -25 41 0 45 2 45 25 0 23 -4 25 -45 25 -41
0 -45 -2 -45 -25z"/>
<path d="M282 3 c159 -2 417 -2 575 0 159 1 29 2 -287 2 -316 0 -446 -1 -288
-2z"/>
</g>
</svg>
